<svg xmlns="http://www.w3.org/2000/svg" width="32" height="32" viewBox="0 0 32 32">
    <g fill="none" fill-rule="evenodd">
        <path d="M0 0H32V32H0z"/>
        <path fill="#333" fill-rule="nonzero" d="M7.5 12c.276 0 .5.224.5.5v1c0 .276-.224.5-.5.5s-.5-.224-.5-.5v-1c0-.276.224-.5.5-.5zm-3.293-.707c.195.195.195.512 0 .707l-.707.707c-.195.195-.512.195-.707 0-.195-.195-.195-.512 0-.707l.707-.707c.195-.195.512-.195.707 0zm7.293 0l.707.707c.195.195.195.512 0 .707-.195.195-.512.195-.707 0L10.793 12c-.195-.195-.195-.512 0-.707.195-.195.512-.195.707 0zM7.5 5c1.657 0 3 1.343 3 3s-1.343 3-3 3-3-1.343-3-3 1.343-3 3-3zM3 7.5c.276 0 .5.224.5.5s-.224.5-.5.5H2c-.276 0-.5-.224-.5-.5s.224-.5.5-.5h1zm10 0c.276 0 .5.224.5.5s-.224.5-.5.5h-1c-.276 0-.5-.224-.5-.5s.224-.5.5-.5h1zm-.793-4.207c.195.195.195.512 0 .707l-.707.707c-.195.195-.512.195-.707 0-.195-.195-.195-.512 0-.707l.707-.707c.195-.195.512-.195.707 0zm-8.707 0L4.207 4c.195.195.195.512 0 .707-.195.195-.512.195-.707 0L2.793 4c-.195-.195-.195-.512 0-.707.195-.195.512-.195.707 0zM7.5 2c.276 0 .5.224.5.5v1c0 .276-.224.5-.5.5S7 3.776 7 3.5v-1c0-.276.224-.5.5-.5z"/>
        <path fill="#FE0" fill-rule="nonzero" d="M7.5 6c-1.105 0-2 .895-2 2s.895 2 2 2 2-.895 2-2-.895-2-2-2z"/>
        <path fill="#75A8F9" d="M30 20c-1.073 1.222-3.19 2-5 2s-3.427-.778-4.5-2c-1.073 1.222-2.69 2-4.5 2s-3.427-.778-4.5-2c-1.073 1.222-2.69 2-4.5 2s-3.927-.778-5-2v10h28V20z"/>
        <path fill="#333" fill-rule="nonzero" d="M29.83 24.624c.207.183.228.498.046.706-1.2 1.366-2.97 2.17-4.876 2.17-1.614 0-3.131-.577-4.287-1.584l-.214-.193C19.321 26.849 17.715 27.5 16 27.5c-1.715 0-3.32-.651-4.5-1.777C10.32 26.849 8.716 27.5 7 27.5c-1.906 0-3.676-.804-4.876-2.17-.182-.208-.161-.523.046-.706.208-.182.523-.161.706.046C3.886 25.82 5.383 26.5 7 26.5c1.617 0 3.114-.68 4.124-1.83.2-.227.553-.227.752 0 1.01 1.15 2.507 1.83 4.124 1.83 1.617 0 3.114-.68 4.124-1.83.2-.227.553-.227.752 0 1.01 1.15 2.507 1.83 4.124 1.83 1.617 0 3.114-.68 4.124-1.83.183-.207.498-.228.706-.046zm0-5c.207.183.228.498.046.706-1.2 1.366-2.97 2.17-4.876 2.17-1.614 0-3.131-.577-4.287-1.584l-.214-.193C19.321 21.849 17.715 22.5 16 22.5c-1.715 0-3.32-.651-4.5-1.777C10.32 21.849 8.716 22.5 7 22.5c-1.906 0-3.676-.804-4.876-2.17-.182-.208-.161-.523.046-.706.208-.182.523-.161.706.046C3.886 20.82 5.383 21.5 7 21.5c1.617 0 3.114-.68 4.124-1.83.2-.227.553-.227.752 0 1.01 1.15 2.507 1.83 4.124 1.83 1.617 0 3.114-.68 4.124-1.83.2-.227.553-.227.752 0 1.01 1.15 2.507 1.83 4.124 1.83 1.617 0 3.114-.68 4.124-1.83.183-.207.498-.228.706-.046zM21 2.5c.276 0 .5.224.5.5 0 .245-.177.45-.41.492L21 3.5h-.5c-1.325 0-2.41 1.032-2.495 2.336L18 6v2h8V6c0-1.869 1.464-3.395 3.308-3.495L29.5 2.5h.5c.276 0 .5.224.5.5 0 .245-.177.45-.41.492L30 3.5h-.5c-1.325 0-2.41 1.032-2.495 2.336L27 6v13c0 .276-.224.5-.5.5-.245 0-.45-.177-.492-.41L26 19v-4h-8v4c0 .276-.224.5-.5.5-.245 0-.45-.177-.492-.41L17 19V6c0-1.869 1.464-3.395 3.308-3.495L20.5 2.5h.5zM26 14V9h-8v5h8z"/>
    </g>
</svg>
