<svg xmlns="http://www.w3.org/2000/svg" width="32" height="32" viewBox="0 0 32 32">
    <g fill="none" fill-rule="evenodd">
        <path d="M0 0H32V32H0z"/>
        <path fill="#333" d="M20.498 30c.095 0 .19-.026.274-.082.231-.151.295-.462.144-.692-.737-1.122-1.059-2.363-1.08-4.116 1.214-1.191 2.301-2.781 2.918-4.463 2.362-1.965 4.191-4.772 4.191-7.888 0-.197-.018-.389-.029-.584 2.174-.975 3.68-3.031 3.68-5.413 0-.494-.119-.933-.252-1.433-.054-.199-.224-.345-.428-.368-.956-.107-1.91.014-2.79.315-.268-1.541-1.323-2.957-2.808-3.726-.144-.075-.316-.075-.46 0-.908.47-1.66 1.191-2.168 2.033-1.667-1.001-3.62-1.589-5.717-1.589C9.913 1.994 5 6.813 5 12.759c0 3.116 1.83 5.923 4.192 7.888.618 1.689 1.713 3.286 2.933 4.479-.007 1.754-.318 2.989-1.045 4.096-.15.23-.087.541.144.692.084.056.18.082.274.082l9 .004z"/>
        <path fill="#71C865" d="M29.205 5.921c.087 0 .175.003.263.007.071.282.128.557.128.834 0 2.643-2.252 4.815-5.097 5.004-.51-1.42-.212-2.957.81-4.134.937-1.083 2.39-1.71 3.896-1.71zm-6.308 1.711c.271.312.493.653.663 1.014-.362.99-.408 2.061-.117 3.098-2.727-.295-4.848-2.417-4.848-4.982 0-.276.06-.55.134-.834 1.611-.089 3.175.557 4.168 1.704zm1.191-5.066c1.137.675 1.926 1.816 2.084 3.03.003.029.017.054.026.08-.624.335-1.188.77-1.647 1.3-.165.192-.315.39-.449.595-.136-.206-.285-.405-.449-.594-.47-.542-1.049-.988-1.692-1.325.025-.047.048-.096.057-.151.186-1.177.97-2.28 2.07-2.935z"/>
        <path fill="#FEFEFE" d="M19.353 10.854c1.187 1.179 2.869 1.925 4.743 1.925.639 0 1.255-.091 1.838-.251.002.078.012.153.012.23 0 2.267-1.158 4.608-3.19 6.537-.473-3.428-2.18-5.794-5.091-7.048.648-.442 1.245-.872 1.78-1.29-.033-.032-.06-.07-.092-.103zm-3.38-7.86c1.944 0 3.754.557 5.288 1.505-.091.252-.168.509-.214.77-.874-.294-1.82-.412-2.764-.308-.205.023-.375.169-.428.368l-.033.125c-.112.409-.226.83-.226 1.308 0 1.284.44 2.472 1.184 3.45-.863.669-1.878 1.373-3.056 2.113-4.32 2.484-6.538 4.712-6.75 6.774-.847-.841-1.524-1.757-2.02-2.707C6.926 14.77 8.217 13.795 9 13.21c.159-.12.297-.223.402-.313.813-.698 1.34-1.452 1.57-2.24.078-.265-.075-.542-.34-.62-.267-.077-.543.077-.62.34-.173.599-.598 1.19-1.262 1.76-.091.079-.211.168-.35.27-.618.464-1.59 1.214-2.102 2.357-.192-.667-.298-1.34-.298-2.005 0-5.385 4.474-9.765 9.973-9.765z"/>
        <path fill="#DAB38D" d="M18.883 25.942c.114 1.525.484 2.747 1.197 3.832.09.14.24.211.393.22h-8.965c.159-.004.314-.08.408-.224.717-1.09 1.084-2.266 1.183-3.8 1.025.781 2.024 1.21 2.874 1.21.86 0 1.873-.438 2.91-1.238zm-2.21-13.038c3.2 1.12 4.899 3.496 5.199 7.246l-.057.154c-.56 1.525-1.584 3.066-2.814 4.227-1.092 1.033-2.225 1.649-3.028 1.649-.788 0-1.9-.598-2.974-1.6-1.254-1.168-2.3-2.727-2.868-4.278l-.041-.11-.051-.141c-.56-1.84 1.579-4.211 6.2-6.87.15-.093.289-.185.434-.277zm1.267 5.15c-.195-.194-.512-.194-.707 0-.195.196-.195.513 0 .708.487.487 1.128.73 1.767.73.64 0 1.28-.243 1.768-.73.195-.195.195-.512 0-.707-.195-.195-.512-.195-.707 0-.584.584-1.537.584-2.121 0zm-6 0c-.195-.194-.512-.194-.707 0-.195.196-.195.513 0 .708.487.487 1.127.73 1.767.73.64 0 1.28-.243 1.768-.73.195-.195.195-.512 0-.707-.195-.195-.512-.195-.707 0-.585.584-1.536.584-2.121 0z"/>
    </g>
</svg>
