<?xml version="1.0" encoding="utf-8"?>
<!-- Generator: Adobe Illustrator 26.3.1, SVG Export Plug-In . SVG Version: 6.00 Build 0)  -->
<svg version="1.1" id="Layer_1" xmlns="http://www.w3.org/2000/svg" xmlns:xlink="http://www.w3.org/1999/xlink" x="0px" y="0px"
	 viewBox="0 0 90 73" style="enable-background:new 0 0 90 73;" xml:space="preserve">
<style type="text/css">
	.st0{fill:#343533;}
	.st1{fill:#6ACBB8;}
	.st2{fill:#F3CC5C;}
	.st3{fill:#EC964C;}
	.st4{fill:#79DBC5;}
</style>
<g>
	<g>
		<path class="st0" d="M45,1.2c19.9,0,35.9,16,35.8,36c0,20-16,35.8-36,35.9C25.2,73,9,56.8,9.1,36.8C9.3,17.1,25.2,1.2,45,1.2z
			 M37.9,40.5c-0.6,1.2-0.6,1.2-1.9,1.1c-4.4-0.3-7.7,2.5-7.6,6.5c0,3.7,2.6,6.1,6.8,6.4c3.4,0.3,6.7-0.7,9.8-1.9
			c6.1-2.3,12.3-4.6,18.4-7c0.4-0.2,0.8-0.7,0.9-1.1c1.2-3.3,1.5-6.6,1-10c-1.2-8.7-8.2-15.9-16.8-17.3c-9-1.4-17.8,3-21.8,11
			c-1,2-1.8,4.1-1.9,6.5C30.1,34.6,34.5,36.3,37.9,40.5z M34.8,39.5c-1.3-0.8-2.4-1.8-3.8-2.3c-5.7-2.1-10.9-1.2-15.4,3
			c-1.3,1.2-2.4,2.7-3.4,4.2c-0.3,0.5-0.4,1.4-0.3,2c1.3,4.9,3.6,9.3,7,13.1c14.5,16.4,39.1,15.9,52.9-1.1c1.5-1.8,2.6-3.9,3.9-5.8
			c-0.1-0.1-0.2-0.2-0.3-0.3c-1.1,0.2-2.3,0.3-3.4,0.6c-5.6,1.9-11.2,3.7-16.8,5.7c-5.1,1.9-10.1,3.9-15.5,4.1
			c-6.1,0.3-11.5-3.1-13.3-8.4C24.4,48.5,27.4,40.3,34.8,39.5z M73.5,43.6c1.6-0.1,3-0.1,4.3-0.3c0.4-0.1,1.1-0.7,1.1-1.2
			c0.1-2.9,0.4-5.9,0.1-8.8C77.2,17,64.3,4.4,48.1,2.9C32,1.4,16.7,11.7,12.2,27.1c-1.5,5.1-1.8,10.2-1,15.7c0.7-0.9,1.3-1.7,2-2.4
			c0.7-0.7,1.5-1.3,2.1-2c0.3-0.4,0.5-1,0.5-1.6c0.2-1.7,0.2-3.5,0.6-5.2c2.5-11.9,9.7-19.9,21.5-22.8c11.9-3,22.1,0.6,30,10.1
			C73.7,26.1,75.2,34.4,73.5,43.6z M17.4,36.5c1.5-0.5,2.7-1.1,4.1-1.3c1.3-0.2,1.7-0.9,1.9-2.1C25.6,21.3,36.9,13.5,49,15.6
			c11.7,2,19.7,13.5,17.8,25.3c-0.2,1.3-0.5,2.6-0.8,4c1.7-0.3,3.3-0.6,4.9-1c0.5-0.1,1-0.7,1.1-1.1c0.8-3.5,0.9-7.1,0.2-10.7
			C69.9,20.2,60.6,11.3,48.6,9.6c-11.4-1.6-22.8,4.4-28.3,15C18.4,28.3,17.4,32.2,17.4,36.5z M27.5,51.8c0.4,3,1.7,5.2,3.9,6.9
			C34.5,61,38,61.5,41.8,61c5-0.7,9.6-2.6,14.3-4.5c6.5-2.5,12.9-5.2,19.9-5.9c0.2,0,0.6-0.2,0.7-0.4c0.6-1.7,1.2-3.5,1.9-5.3
			c-1.1,0-1.9-0.1-2.6,0c-7,0.6-13.6,2.4-20.1,5c-4.9,2-9.8,4-14.9,5.5C36,56.7,31.1,56.7,27.5,51.8z"/>
		<path class="st1" d="M34.8,39.5c-7.3,0.8-10.3,9-8.3,14.8c1.8,5.3,7.2,8.7,13.3,8.4c5.5-0.2,10.5-2.3,15.5-4.1
			c5.6-2,11.2-3.9,16.8-5.7c1.1-0.4,2.3-0.4,3.4-0.6c0.1,0.1,0.2,0.2,0.3,0.3c-1.3,1.9-2.4,4-3.9,5.8c-13.8,17-38.4,17.5-52.9,1.1
			c-3.4-3.8-5.7-8.2-7-13.1c-0.2-0.6-0.1-1.5,0.3-2c1-1.5,2.1-3,3.4-4.2c4.5-4.2,9.7-5,15.4-3C32.3,37.8,33.5,38.8,34.8,39.5z"/>
		<path class="st2" d="M73.5,43.6c1.7-9.1,0.2-17.5-5.6-24.7c-7.8-9.5-18-13.2-30-10.1c-11.8,3-19,10.9-21.5,22.8
			c-0.4,1.7-0.4,3.5-0.6,5.2c-0.1,0.5-0.2,1.2-0.5,1.6c-0.6,0.7-1.4,1.3-2.1,2c-0.7,0.7-1.2,1.5-2,2.4c-0.8-5.5-0.5-10.6,1-15.7
			C16.7,11.7,32,1.4,48.1,2.9C64.3,4.4,77.2,17,78.9,33.2c0.3,2.9,0.1,5.9-0.1,8.8c0,0.4-0.6,1.1-1.1,1.2
			C76.4,43.5,75,43.5,73.5,43.6z"/>
		<path class="st3" d="M17.4,36.5c0-4.3,1-8.3,2.9-12C25.8,14,37.2,7.9,48.6,9.6c12,1.7,21.3,10.6,23.5,22.5
			c0.7,3.6,0.6,7.2-0.2,10.7c-0.1,0.5-0.7,1-1.1,1.1c-1.5,0.4-3.1,0.7-4.9,1c0.3-1.4,0.6-2.7,0.8-4c2-11.8-6.1-23.2-17.8-25.3
			c-12-2.1-23.4,5.6-25.6,17.5c-0.2,1.2-0.6,1.8-1.9,2.1C20.2,35.4,18.9,36,17.4,36.5z"/>
		<path class="st4" d="M27.5,51.8c3.7,4.9,8.6,4.9,13.4,3.5c5.1-1.5,10-3.5,14.9-5.5c6.5-2.6,13.2-4.4,20.1-5c0.8-0.1,1.5,0,2.6,0
			c-0.6,1.8-1.2,3.6-1.9,5.3c-0.1,0.2-0.4,0.4-0.7,0.4c-7,0.7-13.4,3.4-19.9,5.9c-4.7,1.8-9.3,3.8-14.3,4.5c-3.7,0.5-7.3,0-10.4-2.3
			C29.1,57,27.8,54.8,27.5,51.8z"/>
	</g>
</g>
</svg>
